<?xml version="1.0" encoding="UTF-8"?> <svg xmlns="http://www.w3.org/2000/svg" viewBox="0 0 27.88 27.91"><defs><style>.cls-1{fill:#00706b;}</style></defs><title>ic_face</title><g id="Layer_2" data-name="Layer 2"><g id="Layer_61" data-name="Layer 61"><path class="cls-1" d="M27.88,11.29c0-1.9,0-3.8,0-5.7A5.5,5.5,0,0,0,22.49,0c-.58,0-1.16,0-1.74,0H5.62A5.5,5.5,0,0,0,0,5.64V22.33a5.52,5.52,0,0,0,5.55,5.58h8.29a.87.87,0,0,0,1-1V16.7a.87.87,0,0,0-1-1H11.67V13.67h2.18a.87.87,0,0,0,1-.95v-.83c0-.6,0-1.2,0-1.8a6.57,6.57,0,0,1,.08-1,3,3,0,0,1,2.28-2.57,5.53,5.53,0,0,1,1.27-.15c.74,0,1.49,0,2.23,0h.86v2H19.45a1.74,1.74,0,0,0-1.89,1.89c0,.69,0,1.37,0,2.06v.37a.84.84,0,0,0,.94.94h3l-.21,2.1H18.52a.86.86,0,0,0-1,1V27a.85.85,0,0,0,.94.95h3.86a5.25,5.25,0,0,0,1.93-.36,5.54,5.54,0,0,0,3.59-5.22v-11Zm-5,5.31L23.25,13A1,1,0,0,0,23,12.2a.94.94,0,0,0-.73-.27h-3v-.28c0-.48,0-1,0-1.42,0-.09,0-.13,0-.13a.32.32,0,0,1,.15,0h2.85a.86.86,0,0,0,1-1V5.63a.86.86,0,0,0-.95-1h-4a5.39,5.39,0,0,0-2.71.68,4.73,4.73,0,0,0-2.34,3.42,8.55,8.55,0,0,0-.13,1.38c0,.47,0,.95,0,1.44V12H10.87a.85.85,0,0,0-.92.91c0,1.23,0,2.45,0,3.67a.85.85,0,0,0,.92.91h2.2V26.2H5.6a3.84,3.84,0,0,1-3.89-3.86V5.58A3.85,3.85,0,0,1,5.6,1.71H22.29a3.83,3.83,0,0,1,3.88,3.87V22.31a3.81,3.81,0,0,1-3.9,3.89h-3V17.45h2.66A.86.86,0,0,0,22.88,16.6Z"></path></g></g></svg> 