<?xml version="1.0" encoding="UTF-8"?> <svg xmlns="http://www.w3.org/2000/svg" viewBox="0 0 27.92 27.91"><defs><style>.cls-1{fill:#00706b;}</style></defs><title>ic_ista</title><g id="Layer_2" data-name="Layer 2"><g id="Layer_53" data-name="Layer 53"><path class="cls-1" d="M1,23.67a8,8,0,0,0,3.77,3.52,7.81,7.81,0,0,0,2.64.69q.39,0,.78,0H19.82a8.12,8.12,0,0,0,7.73-5.71,8,8,0,0,0,.36-2.33c0-4,0-7.92,0-11.88a7.82,7.82,0,0,0-2.56-5.8A8,8,0,0,0,21.9.27,8.24,8.24,0,0,0,20.26,0H7.75L7.21.05A7.75,7.75,0,0,0,4.55.82a8,8,0,0,0-3.8,3.9,7.47,7.47,0,0,0-.7,2.49c0,.17,0,.35,0,.52V20.18c0,.17,0,.34.05.51A7.6,7.6,0,0,0,1,23.67ZM2.15,8.12A5.77,5.77,0,0,1,5.26,2.87a5.57,5.57,0,0,1,2.91-.72H14c2,0,3.95,0,5.92,0a5.78,5.78,0,0,1,4.54,2.18,5.75,5.75,0,0,1,1.31,3.09c0,.24,0,.48,0,.71q0,5.83,0,11.65a5.78,5.78,0,0,1-2,4.52,5.68,5.68,0,0,1-2.91,1.38,7.15,7.15,0,0,1-1,.08c-3.91,0-7.83,0-11.74,0a5.93,5.93,0,0,1-5.76-4.67,6.3,6.3,0,0,1-.13-1.3C2.15,15.9,2.13,12,2.15,8.12Z"></path><path class="cls-1" d="M14,21.47A7.52,7.52,0,1,0,6.44,14,7.53,7.53,0,0,0,14,21.47ZM14,8.59A5.37,5.37,0,1,1,8.59,14,5.35,5.35,0,0,1,14,8.59Z"></path><path class="cls-1" d="M22,7.52A1.62,1.62,0,1,0,20.4,5.9,1.62,1.62,0,0,0,22,7.52Z"></path></g></g></svg> 