<?xml version="1.0" encoding="UTF-8"?> <svg xmlns="http://www.w3.org/2000/svg" viewBox="0 0 37.21 27.91"><defs><style>.cls-1{fill:#00706b;}</style></defs><title>ic_mail</title><g id="Layer_2" data-name="Layer 2"><g id="Layer_51" data-name="Layer 51"><path class="cls-1" d="M37.21,23.27V4.64A4.62,4.62,0,0,0,32.58,0H4.74A4.62,4.62,0,0,0,.07,3.77,1,1,0,0,1,0,3.92V24l.18.61a4.63,4.63,0,0,0,3.56,3.24l.18.08H33.29L34,27.7A4.61,4.61,0,0,0,37.21,23.27ZM5,2.33c4.35,0,8.7,0,13,0H32.24c.22,0,.44,0,.76.06L18.61,14.73,4.22,2.4C4.52,2.37,4.74,2.33,5,2.33ZM2.4,23.71c0-.32-.07-.54-.07-.77,0-4.62,0-9.25,0-13.87,0-1.4,0-2.79,0-4.18A7.1,7.1,0,0,1,2.44,4l9.85,8.44Zm30,1.87H4.83c-.25,0-.5-.06-.85-.1L14.07,14c.61.51,1.2,1,1.79,1.53L17.65,17a1.23,1.23,0,0,0,1.9,0l3.28-2.81.32-.26L33.23,25.47A6.15,6.15,0,0,1,32.4,25.58ZM24.92,12.41,34.78,4a8,8,0,0,1,.1.85q0,9.14,0,18.27a4.66,4.66,0,0,1-.08.61Z"></path></g></g></svg> 